<svg xmlns="http://www.w3.org/2000/svg" viewBox="0 0 248.372 204.453">
    <defs>
        <style>
            .cls-1{opacity:.5}.cls-2,.cls-4,.cls-7{fill:#fff}.cls-2,.cls-3,.cls-6,.cls-7,.cls-8{stroke:#fff;stroke-miterlimit:10}.cls-2,.cls-3{stroke-width:1.282px}.cls-3,.cls-6,.cls-8{fill:none}.cls-5{fill:#f4f2f2}.cls-7,.cls-8{stroke-width:.641px}.cls-9{fill:#ea4873}
        </style>
    </defs>
    <g id="Symbole_1_2" data-name="Symbole 1 – 2" transform="translate(-168.723 -308.935)">
        <g id="OBJECTS_-_copie" class="cls-1" transform="translate(157.453 309.023)">
            <g id="Groupe_26" data-name="Groupe 26" transform="translate(11.911 59.642)">
                <path id="Tracé_198" d="M79.868 124.735a1.209 1.209 0 0 0-1.214-1.214h-8.093a1.209 1.209 0 0 1-1.214-1.214v-8.093A1.209 1.209 0 0 0 68.133 113h-5.6a1.209 1.209 0 0 0-1.214 1.214v8.093a1.209 1.209 0 0 1-1.214 1.214h-8.091a1.209 1.209 0 0 0-1.214 1.214v5.6a1.209 1.209 0 0 0 1.214 1.214h8.093a1.209 1.209 0 0 1 1.214 1.214v8.093a1.209 1.209 0 0 0 1.214 1.214h5.6a1.209 1.209 0 0 0 1.214-1.214v-8.093a1.209 1.209 0 0 1 1.214-1.214h8.093a1.209 1.209 0 0 0 1.214-1.214z" class="cls-2" data-name="Tracé 198" transform="translate(-50.8 -113)"/>
            </g>
            <g id="Groupe_43" data-name="Groupe 43" transform="translate(201.911 100.642)">
                <path id="Tracé_198-2" d="M79.868 124.735a1.209 1.209 0 0 0-1.214-1.214h-8.093a1.209 1.209 0 0 1-1.214-1.214v-8.093A1.209 1.209 0 0 0 68.133 113h-5.6a1.209 1.209 0 0 0-1.214 1.214v8.093a1.209 1.209 0 0 1-1.214 1.214h-8.091a1.209 1.209 0 0 0-1.214 1.214v5.6a1.209 1.209 0 0 0 1.214 1.214h8.093a1.209 1.209 0 0 1 1.214 1.214v8.093a1.209 1.209 0 0 0 1.214 1.214h5.6a1.209 1.209 0 0 0 1.214-1.214v-8.093a1.209 1.209 0 0 1 1.214-1.214h8.093a1.209 1.209 0 0 0 1.214-1.214z" class="cls-3" data-name="Tracé 198" transform="translate(-50.8 -113)"/>
            </g>
            <g id="Groupe_27" data-name="Groupe 27" transform="translate(106.321 19.488)">
                <path id="Tracé_199" d="M175.979 49.091a1.209 1.209 0 0 0-1.214-1.214h-4.249a1.209 1.209 0 0 1-1.214-1.214v-4.249a1.209 1.209 0 0 0-1.214-1.214h-2.7a1.209 1.209 0 0 0-1.214 1.214v4.249a1.209 1.209 0 0 1-1.214 1.214h-4.249a1.209 1.209 0 0 0-1.214 1.214v2.7A1.209 1.209 0 0 0 158.714 53h4.249a1.209 1.209 0 0 1 1.214 1.214v4.249a1.209 1.209 0 0 0 1.214 1.214h2.7a1.209 1.209 0 0 0 1.214-1.214v-4.246A1.209 1.209 0 0 1 170.517 53h4.249a1.209 1.209 0 0 0 1.214-1.214z" class="cls-4" data-name="Tracé 199" transform="translate(-157.5 -41.2)"/>
            </g>
            <g id="Groupe_42" data-name="Groupe 42" transform="translate(223.321 41.488)">
                <path id="Tracé_199-2" d="M175.979 49.091a1.209 1.209 0 0 0-1.214-1.214h-4.249a1.209 1.209 0 0 1-1.214-1.214v-4.249a1.209 1.209 0 0 0-1.214-1.214h-2.7a1.209 1.209 0 0 0-1.214 1.214v4.249a1.209 1.209 0 0 1-1.214 1.214h-4.249a1.209 1.209 0 0 0-1.214 1.214v2.7A1.209 1.209 0 0 0 158.714 53h4.249a1.209 1.209 0 0 1 1.214 1.214v4.249a1.209 1.209 0 0 0 1.214 1.214h2.7a1.209 1.209 0 0 0 1.214-1.214v-4.246A1.209 1.209 0 0 1 170.517 53h4.249a1.209 1.209 0 0 0 1.214-1.214z" class="cls-4" data-name="Tracé 199" transform="translate(-157.5 -41.2)"/>
            </g>
            <g id="Groupe_28" data-name="Groupe 28" transform="translate(45.696 143.331)">
                <path id="Tracé_200" d="M232.879 251.591a1.209 1.209 0 0 0-1.214-1.214h-4.249a1.209 1.209 0 0 1-1.214-1.214v-4.249a1.209 1.209 0 0 0-1.214-1.214h-2.7a1.209 1.209 0 0 0-1.214 1.214v4.249a1.209 1.209 0 0 1-1.214 1.214h-4.249a1.209 1.209 0 0 0-1.214 1.214v2.7a1.209 1.209 0 0 0 1.214 1.214h4.249a1.209 1.209 0 0 1 1.214 1.214v4.249a1.209 1.209 0 0 0 1.214 1.214h2.7a1.209 1.209 0 0 0 1.214-1.214v-4.249a1.209 1.209 0 0 1 1.214-1.214h4.249a1.209 1.209 0 0 0 1.214-1.214z" class="cls-3" data-name="Tracé 200" transform="translate(-214.4 -243.7)"/>
            </g>
            <g id="Groupe_29" data-name="Groupe 29" transform="translate(50.41 35.919)">
                <path id="Tracé_201" d="M83.233 57.616a1.4 1.4 0 0 0-1.551-1.216 1.526 1.526 0 0 1-1.551-1.551 1.251 1.251 0 1 0-2.428 0 1.526 1.526 0 0 1-1.552 1.551 1.251 1.251 0 1 0 0 2.428 1.526 1.526 0 0 1 1.549 1.554 1.251 1.251 0 1 0 2.428 0 1.526 1.526 0 0 1 1.551-1.551 1.4 1.4 0 0 0 1.554-1.215z" class="cls-5" data-name="Tracé 201" transform="translate(-74.6 -53.3)"/>
            </g>
            <g id="Groupe_30" data-name="Groupe 30" transform="translate(203.005 69.654)">
                <path id="Tracé_202" d="M322.833 75.016a1.4 1.4 0 0 0-1.551-1.214 1.526 1.526 0 0 1-1.551-1.551 1.251 1.251 0 1 0-2.428 0 1.526 1.526 0 0 1-1.551 1.551 1.251 1.251 0 1 0 0 2.428 1.526 1.526 0 0 1 1.551 1.551 1.251 1.251 0 1 0 2.428 0 1.526 1.526 0 0 1 1.551-1.551 1.4 1.4 0 0 0 1.551-1.214z" class="cls-6" data-name="Tracé 202" transform="translate(-314.2 -70.7)"/>
            </g>
            <g id="Groupe_31" data-name="Groupe 31" transform="translate(212.005 148.009)">
                <path id="Tracé_203" d="M322.833 223.816a1.209 1.209 0 0 0-1.214-1.214h-.674a1.209 1.209 0 0 1-1.214-1.214v-.674a1.214 1.214 0 1 0-2.428 0v.674a1.209 1.209 0 0 1-1.214 1.214h-.674a1.214 1.214 0 0 0 0 2.428h.674a1.209 1.209 0 0 1 1.214 1.214v.674a1.214 1.214 0 1 0 2.428 0v-.674a1.209 1.209 0 0 1 1.214-1.214h.674a1.3 1.3 0 0 0 1.214-1.214z" class="cls-4" data-name="Tracé 203" transform="translate(-314.2 -219.5)"/>
            </g>
            <g id="Groupe_32" data-name="Groupe 32" transform="translate(46.578 195.732)">
                <path id="Tracé_204" d="M122.033 316.816a1.209 1.209 0 0 0-1.214-1.214h-.674a1.209 1.209 0 0 1-1.214-1.214v-.674a1.214 1.214 0 0 0-2.428 0v.674a1.209 1.209 0 0 1-1.214 1.214h-.674a1.214 1.214 0 1 0 0 2.428h.674a1.209 1.209 0 0 1 1.214 1.214v.674a1.214 1.214 0 1 0 2.428 0v-.674a1.209 1.209 0 0 1 1.214-1.214h.674a1.209 1.209 0 0 0 1.214-1.214z" class="cls-4" data-name="Tracé 204" transform="translate(-113.4 -312.5)"/>
            </g>
            <path id="Tracé_206" d="M136.791 86.8a2.5 2.5 0 1 1-2.5-2.5 2.534 2.534 0 0 1 2.5 2.5z" class="cls-4" data-name="Tracé 206" transform="translate(-47.812 -29.474)"/>
            <path id="Tracé_207" d="M272.691 200.8a2.5 2.5 0 1 1-2.5-2.5 2.49 2.49 0 0 1 2.5 2.5z" class="cls-4" data-name="Tracé 207" transform="translate(-87.057 -64.589)"/>
            <path id="Tracé_208" d="M69.091 284.8a2.5 2.5 0 1 1-2.5-2.5 2.448 2.448 0 0 1 2.5 2.5z" class="cls-3" data-name="Tracé 208" transform="translate(7.229 -99.936)"/>
            <path id="Tracé_209" d="M268.991 37a2.5 2.5 0 1 1-2.5-2.5 2.49 2.49 0 0 1 2.5 2.5z" class="cls-3" data-name="Tracé 209" transform="translate(-85.852 12.739)"/>
            <g id="Groupe_33" data-name="Groupe 33" transform="translate(81.839 11.437)">
                <path id="Tracé_210" d="M131.3 32.9v3.3a.337.337 0 0 0 .674 0v-3.3h-.674z" class="cls-5" data-name="Tracé 210" transform="translate(-124.488 -22.177)"/>
                <path id="Tracé_211" d="M131.974 20.642v-3.3a.337.337 0 0 0-.674 0v3.3h.674z" class="cls-5" data-name="Tracé 211" transform="translate(-124.488 -17)"/>
                <path id="Tracé_212" d="M124.842 27.1h-3.3a.337.337 0 1 0 0 .674h3.3v-.337c-.068-.067 0-.202 0-.337z" class="cls-5" data-name="Tracé 212" transform="translate(-121.2 -20.288)"/>
                <path id="Tracé_213" d="M140.237 27.1H137v.674h3.3a.319.319 0 0 0 .337-.337.437.437 0 0 0-.4-.337z" class="cls-5" data-name="Tracé 213" transform="translate(-126.344 -20.288)"/>
                <path id="Tracé_214" d="M126.544 31l-2.293 2.293a.326.326 0 0 0 0 .472.35.35 0 0 0 .27.135.511.511 0 0 0 .27-.135l2.293-2.293c-.203-.135-.337-.337-.54-.472z" class="cls-5" data-name="Tracé 214" transform="translate(-122.16 -21.558)"/>
                <path id="Tracé_215" d="M135.572 22.916l2.293-2.293a.334.334 0 1 0-.472-.472l-2.293 2.293a3.116 3.116 0 0 1 .472.472z" class="cls-5" data-name="Tracé 215" transform="translate(-125.725 -17.993)"/>
                <path id="Tracé_216" d="M135.1 31.472l2.293 2.293a.35.35 0 0 0 .27.135.511.511 0 0 0 .27-.135.326.326 0 0 0 0-.472L135.64 31c-.203.135-.34.337-.54.472z" class="cls-5" data-name="Tracé 216" transform="translate(-125.725 -21.558)"/>
                <path id="Tracé_217" d="M127.116 22.444l-2.293-2.293a.334.334 0 1 0-.472.472l2.293 2.293a3.115 3.115 0 0 1 .472-.472z" class="cls-5" data-name="Tracé 217" transform="translate(-122.193 -17.993)"/>
            </g>
            <g id="Groupe_34" data-name="Groupe 34" transform="translate(36.3 108.013)">
                <path id="Tracé_218" d="M10.4 167.1v3.3a.337.337 0 1 0 .674 0v-3.3H10.4z" class="cls-7" data-name="Tracé 218" transform="translate(-3.588 -156.444)"/>
                <path id="Tracé_219" d="M11.074 154.942v-3.3a.337.337 0 1 0-.674 0v3.3h.674z" class="cls-7" data-name="Tracé 219" transform="translate(-3.588 -151.3)"/>
                <path id="Tracé_220" d="M3.942 161.4H.637a.337.337 0 1 0 0 .674h3.3v-.337c.005-.137.005-.202.005-.337z" class="cls-7" data-name="Tracé 220" transform="translate(-.3 -154.588)"/>
                <path id="Tracé_221" d="M19.4 161.4h-3.3v.674h3.3a.319.319 0 0 0 .337-.337.361.361 0 0 0-.337-.337z" class="cls-7" data-name="Tracé 221" transform="translate(-5.444 -154.588)"/>
                <path id="Tracé_222" d="M5.744 165.2l-2.293 2.293a.326.326 0 0 0 0 .472.35.35 0 0 0 .27.135.511.511 0 0 0 .27-.135l2.293-2.293a1.249 1.249 0 0 1-.54-.472z" class="cls-7" data-name="Tracé 222" transform="translate(-1.293 -155.825)"/>
                <path id="Tracé_223" d="M14.672 157.216l2.293-2.293a.334.334 0 1 0-.472-.472l-2.293 2.293a1.576 1.576 0 0 1 .472.472z" class="cls-7" data-name="Tracé 223" transform="translate(-4.825 -152.293)"/>
                <path id="Tracé_224" d="M14.2 165.672l2.293 2.293a.35.35 0 0 0 .27.135.511.511 0 0 0 .27-.135.326.326 0 0 0 0-.472L14.74 165.2a3.377 3.377 0 0 1-.54.472z" class="cls-7" data-name="Tracé 224" transform="translate(-4.825 -155.825)"/>
                <path id="Tracé_225" d="M6.216 156.744l-2.293-2.293a.334.334 0 0 0-.472.472l2.293 2.293a1.576 1.576 0 0 1 .472-.472z" class="cls-7" data-name="Tracé 225" transform="translate(-1.293 -152.293)"/>
            </g>
            <g id="Groupe_35" data-name="Groupe 35" transform="translate(245.07 129.718)">
                <path id="Tracé_226" d="M358.5 197.9v3.3a.337.337 0 1 0 .674 0v-3.3h-.674z" class="cls-8" data-name="Tracé 226" transform="translate(-351.688 -187.176)"/>
                <path id="Tracé_227" d="M359.174 185.642v-3.3a.337.337 0 1 0-.674 0v3.3h.674z" class="cls-8" data-name="Tracé 227" transform="translate(-351.688 -182)"/>
                <path id="Tracé_228" d="M352.042 192.1h-3.3a.337.337 0 1 0 0 .674h3.3v-.674z" class="cls-8" data-name="Tracé 228" transform="translate(-348.4 -185.288)"/>
                <path id="Tracé_229" d="M367.4 192.1h-3.3v.674h3.3a.319.319 0 0 0 .337-.337c.072-.137-.13-.337-.337-.337z" class="cls-8" data-name="Tracé 229" transform="translate(-353.511 -185.288)"/>
                <path id="Tracé_230" d="M353.744 196l-2.293 2.293a.326.326 0 0 0 0 .472.35.35 0 0 0 .27.135.511.511 0 0 0 .27-.135l2.293-2.293c-.203-.135-.337-.337-.54-.472z" class="cls-8" data-name="Tracé 230" transform="translate(-349.36 -186.558)"/>
                <path id="Tracé_231" d="M362.772 187.916l2.293-2.293a.334.334 0 1 0-.472-.472l-2.293 2.293a3.116 3.116 0 0 1 .472.472z" class="cls-8" data-name="Tracé 231" transform="translate(-352.925 -182.993)"/>
                <path id="Tracé_232" d="M362.3 196.472l2.293 2.293a.35.35 0 0 0 .27.135.511.511 0 0 0 .27-.135.326.326 0 0 0 0-.472L362.772 196a3.116 3.116 0 0 1-.472.472z" class="cls-8" data-name="Tracé 232" transform="translate(-352.925 -186.558)"/>
                <path id="Tracé_233" d="M354.316 187.444l-2.293-2.293a.334.334 0 1 0-.472.472l2.293 2.293a3.115 3.115 0 0 1 .472-.472z" class="cls-8" data-name="Tracé 233" transform="translate(-349.393 -182.993)"/>
            </g>
            <g id="Groupe_36" data-name="Groupe 36" transform="translate(167.35 178.177)">
                <path id="Tracé_234" d="M279.4 282v4.923a.54.54 0 1 0 1.079 0V282H279.4z" class="cls-4" data-name="Tracé 234" transform="translate(-269.216 -266.016)"/>
                <path id="Tracé_235" d="M280.479 263.763v-4.923a.54.54 0 0 0-1.079 0v4.923h.54a.745.745 0 0 1 .539 0z" class="cls-4" data-name="Tracé 235" transform="translate(-269.216 -258.3)"/>
                <path id="Tracé_236" d="M269.763 273.4h-4.923a.54.54 0 0 0 0 1.079h4.923V273.4z" class="cls-4" data-name="Tracé 236" transform="translate(-264.3 -263.216)"/>
                <path id="Tracé_237" d="M292.923 273.4H288v1.079h4.923a.532.532 0 0 0 .54-.54c-.063-.339-.27-.539-.54-.539z" class="cls-4" data-name="Tracé 237" transform="translate(-272.016 -263.216)"/>
                <path id="Tracé_238" d="M272.466 279.1l-3.44 3.44a.529.529 0 0 0 0 .742.371.371 0 0 0 .337.135.515.515 0 0 0 .337-.135l3.44-3.44a7.38 7.38 0 0 1-.674-.742z" class="cls-4" data-name="Tracé 238" transform="translate(-265.789 -265.072)"/>
                <path id="Tracé_239" d="M285.942 267.108l3.44-3.44a.525.525 0 0 0-.742-.742l-3.44 3.44a7.694 7.694 0 0 1 .742.742z" class="cls-4" data-name="Tracé 239" transform="translate(-271.104 -259.757)"/>
                <path id="Tracé_240" d="M285.2 279.842l3.44 3.44a.371.371 0 0 0 .337.135.515.515 0 0 0 .337-.135.529.529 0 0 0 0-.742l-3.44-3.44a3.535 3.535 0 0 1-.674.742z" class="cls-4" data-name="Tracé 240" transform="translate(-271.104 -265.072)"/>
                <path id="Tracé_241" d="M273.208 266.366l-3.44-3.44a.525.525 0 0 0-.742.742l3.44 3.44a3.865 3.865 0 0 1 .742-.742z" class="cls-4" data-name="Tracé 241" transform="translate(-265.789 -259.757)"/>
            </g>
            <path id="Tracé_242" d="M217.376.443c-3.979-1.888-5.8 2.158-5.935 2.428-.135-.337-1.956-4.384-5.935-2.428-4.114 1.956-2.023 8.228 5.935 13.017 8.026-4.721 10.117-10.993 5.935-13.017z" class="cls-4" data-name="Tracé 242" transform="translate(-66.138)"/>
            <path id="Tracé_243" d="M204.431 307.779a2.15 2.15 0 0 0-2.968 1.214 2.15 2.15 0 0 0-2.968-1.214c-2.091 1.012-1.012 4.114 2.968 6.475 4.047-2.361 5.059-5.531 2.968-6.475z" class="cls-4" data-name="Tracé 243" transform="translate(-90.186 -127.15)"/>
        </g>
        <g id="Groupe_41" data-name="Groupe 41" transform="translate(249.5 339.478)">
            <path id="Soustraction_1" d="M64.042 128.083a64.373 64.373 0 1 1 23.8-4.658v-5.046a2.253 2.253 0 0 0 .647-.517L111.782 94.7a5.789 5.789 0 0 0 2.846-4.916V68.7a5.692 5.692 0 0 0-11.384 0v18.371l-3.364 3.364a6.454 6.454 0 0 0-1.553-2.718 5.7 5.7 0 0 0-8.021 0L83.318 94.7l-9.185 9.186a4.415 4.415 0 0 0-1.424 2.329h-.258v21.217a58.466 58.466 0 0 0 9.634-1.993 63.152 63.152 0 0 1-18.043 2.644zM19.277 63.006a5.743 5.743 0 0 0-5.692 5.694v21.087a5.789 5.789 0 0 0 2.846 4.913l23.029 23.162a2.839 2.839 0 0 0 .646.517v5.046a62.785 62.785 0 0 0 15.4 4.01l.258-21.217c-.113-.17-.229-.349-.341-.523a10.879 10.879 0 0 0-1.342-1.806l-9.457-9.457-6.715-6.715a5.7 5.7 0 0 0-8.02 0 5.784 5.784 0 0 0-1.553 2.718l-3.364-3.364V68.7a5.743 5.743 0 0 0-5.693-5.693zm44.765 31.439l.128.128 25.488-25.357H74.521a1.639 1.639 0 0 1-1.421-1.164l-2.72-11.773-4.916 21.864a1.4 1.4 0 0 1-1.423 1.164h-.13a1.508 1.508 0 0 1-1.423-1.035L55.76 59.513l-4.139 8.8a1.565 1.565 0 0 1-1.294.906H38.554l25.357 25.355.129-.128zm-7.893-40.237a1.264 1.264 0 0 1 1.294 1.035l6.21 17.337 5.176-23.159a1.452 1.452 0 0 1 2.846 0l4.01 16.819H92.5l5.822-5.822-.129-.129a20.15 20.15 0 0 0 5.757-14.2 20.169 20.169 0 0 0-39.912-3.913 20.2 20.2 0 1 0-34.027 18.5l5.563 5.562h13.847l5.3-11.126a1.594 1.594 0 0 1 1.428-.904zm27.528 70.739a66.622 66.622 0 0 0 .001.001z" class="cls-4" data-name="Soustraction 1" transform="translate(-20.5 7.5)"/>
        </g>
        <g id="Groupe_44" data-name="Groupe 44" transform="translate(252.975 372.746)">
            <path id="Tracé_252" d="M45.922 35.134L43.061 23.3l-4.812 21.978a1.415 1.415 0 0 1-1.43 1.17h-.13a1.521 1.521 0 0 1-1.43-1.04L28.5 26.551l-4.161 8.843a1.566 1.566 0 0 1-1.3.91H11.2c10.143 10.014 25.489 25.489 25.489 25.489l.13-.13.13.13L62.438 36.3H47.352a1.524 1.524 0 0 1-1.43-1.166z" class="cls-9" data-name="Tracé 252" transform="translate(3.357 6.993)"/>
            <path id="Tracé_253" d="M74.378 5.975a20.329 20.329 0 0 0-28.74 0 19.966 19.966 0 0 0-5.462 10.143 19.966 19.966 0 0 0-5.462-10.143 20.322 20.322 0 0 0-28.74 28.74l5.592 5.592h13.915l5.332-11.184a1.6 1.6 0 0 1 1.43-.91 1.266 1.266 0 0 1 1.3 1.04l6.242 17.426 5.2-23.278a1.524 1.524 0 0 1 1.43-1.17 1.524 1.524 0 0 1 1.43 1.17l4.035 16.905h16.906l5.852-5.852-.13-.13a20.093 20.093 0 0 0-.13-28.349z" class="cls-9" data-name="Tracé 253"/>
        </g>
    </g>
</svg>
