<svg xmlns="http://www.w3.org/2000/svg" id="Groupe_101" data-name="Groupe 101" viewBox="0 0 83.458 41.792">
    <defs>
        <style>
            .cls-1{fill:#fff}
        </style>
    </defs>
    <g id="Groupe_96" data-name="Groupe 96" transform="translate(0 5.469)">
        <path id="Tracé_1240" d="M9.767 79.519a7.631 7.631 0 0 1-.317 2.3 4.653 4.653 0 0 1-.95 1.722 4.036 4.036 0 0 1-1.56 1.075 5.842 5.842 0 0 1-2.149.368 6.3 6.3 0 0 1-2.105-.316 3.575 3.575 0 0 1-1.494-.968 4.106 4.106 0 0 1-.9-1.641A8.537 8.537 0 0 1 0 79.7a7.4 7.4 0 0 1 .317-2.25 4.556 4.556 0 0 1 .95-1.7 4.2 4.2 0 0 1 1.56-1.075 5.729 5.729 0 0 1 2.156-.375 6.335 6.335 0 0 1 2.068.309 3.709 3.709 0 0 1 1.5.957 4.086 4.086 0 0 1 .907 1.634 7.69 7.69 0 0 1 .309 2.319zm-2.2.11a8.221 8.221 0 0 0-.125-1.479 3.236 3.236 0 0 0-.434-1.141 2.129 2.129 0 0 0-.817-.736 2.745 2.745 0 0 0-1.273-.258 2.575 2.575 0 0 0-1.3.294 2.372 2.372 0 0 0-.839.78 3.182 3.182 0 0 0-.449 1.134A6.878 6.878 0 0 0 2.2 79.6a8.529 8.529 0 0 0 .125 1.516 3.463 3.463 0 0 0 .427 1.156A1.961 1.961 0 0 0 3.57 83a2.857 2.857 0 0 0 1.281.25 2.656 2.656 0 0 0 1.3-.287 2.308 2.308 0 0 0 .839-.78 3.3 3.3 0 0 0 .449-1.156 7.1 7.1 0 0 0 .128-1.398z" class="cls-1" data-name="Tracé 1240" transform="translate(0 -74.3)"/>
        <path id="Tracé_1241" d="M162.259 79.928a4.012 4.012 0 0 1-.272 1.538 2.94 2.94 0 0 1-.788 1.126 3.6 3.6 0 0 1-1.273.7 5.819 5.819 0 0 1-1.774.236h-.861v3.3a.194.194 0 0 1-.052.14.318.318 0 0 1-.169.1 1.941 1.941 0 0 1-.316.066 4.76 4.76 0 0 1-.508.022 4.957 4.957 0 0 1-.508-.022 1.459 1.459 0 0 1-.324-.066.318.318 0 0 1-.169-.1.242.242 0 0 1-.044-.14v-9.285a.73.73 0 0 1 .2-.559.714.714 0 0 1 .515-.184h2.429c.243 0 .478.007.7.029a6.955 6.955 0 0 1 .795.118 3.505 3.505 0 0 1 .935.339 2.741 2.741 0 0 1 .81.626 2.619 2.619 0 0 1 .508.883 3.6 3.6 0 0 1 .166 1.133zm-2.193.147a1.878 1.878 0 0 0-.191-.891 1.29 1.29 0 0 0-.471-.515 1.579 1.579 0 0 0-.589-.213 4.419 4.419 0 0 0-.633-.044h-.891v3.5h.942a2.306 2.306 0 0 0 .839-.132 1.415 1.415 0 0 0 .552-.375 1.654 1.654 0 0 0 .324-.581 2.292 2.292 0 0 0 .117-.749z" class="cls-1" data-name="Tracé 1241" transform="translate(-143.777 -76.616)"/>
        <path id="Tracé_1242" d="M264.991 77.654a3.059 3.059 0 0 1-.022.4 1.018 1.018 0 0 1-.059.265.328.328 0 0 1-.1.147.206.206 0 0 1-.133.044H262.1v8.317a.194.194 0 0 1-.052.14.35.35 0 0 1-.169.1 2.053 2.053 0 0 1-.324.066 4.76 4.76 0 0 1-.508.022 4.858 4.858 0 0 1-.508-.022 1.46 1.46 0 0 1-.324-.066.291.291 0 0 1-.169-.1.207.207 0 0 1-.052-.14v-8.319h-2.584a.205.205 0 0 1-.132-.044.392.392 0 0 1-.1-.147 1.018 1.018 0 0 1-.059-.265 3.06 3.06 0 0 1-.022-.4 3.1 3.1 0 0 1 .022-.4 1.447 1.447 0 0 1 .059-.265.357.357 0 0 1 .1-.14.205.205 0 0 1 .132-.044h7.272a.237.237 0 0 1 .132.044.432.432 0 0 1 .1.14 1.019 1.019 0 0 1 .059.265c.01.107.018.24.018.402z" class="cls-1" data-name="Tracé 1242" transform="translate(-238.176 -76.616)"/>
        <path id="Tracé_1243" d="M381.6 86.176a.194.194 0 0 1-.052.14.318.318 0 0 1-.169.1 1.941 1.941 0 0 1-.316.066 4.758 4.758 0 0 1-.508.022 4.955 4.955 0 0 1-.508-.022 1.46 1.46 0 0 1-.324-.066.291.291 0 0 1-.169-.1.206.206 0 0 1-.052-.14v-9.745a.194.194 0 0 1 .052-.14.342.342 0 0 1 .177-.1 2.053 2.053 0 0 1 .324-.066 4.7 4.7 0 0 1 .5-.022 4.76 4.76 0 0 1 .508.022 1.384 1.384 0 0 1 .316.066.334.334 0 0 1 .169.1.206.206 0 0 1 .052.14z" class="cls-1" data-name="Tracé 1243" transform="translate(-351.567 -75.968)"/>
        <path id="Tracé_1244" d="M448.934 86.732a.227.227 0 0 1-.044.14.27.27 0 0 1-.162.1 1.68 1.68 0 0 1-.309.066 4.318 4.318 0 0 1-.486.022 4.264 4.264 0 0 1-.478-.022 1.24 1.24 0 0 1-.3-.066.325.325 0 0 1-.162-.1.243.243 0 0 1-.044-.14v-8.4h-.015l-2.988 8.391a.436.436 0 0 1-.1.169.5.5 0 0 1-.2.11 1.132 1.132 0 0 1-.316.052c-.125.007-.28.015-.464.015a4.072 4.072 0 0 1-.464-.022 1.478 1.478 0 0 1-.316-.066.637.637 0 0 1-.2-.11.342.342 0 0 1-.1-.155l-2.886-8.389h-.007v8.406a.226.226 0 0 1-.044.14.27.27 0 0 1-.162.1 2.01 2.01 0 0 1-.309.066 4.317 4.317 0 0 1-.486.022 4.264 4.264 0 0 1-.478-.022 1.4 1.4 0 0 1-.309-.066.27.27 0 0 1-.162-.1.242.242 0 0 1-.044-.14v-9.194a.84.84 0 0 1 .213-.618.778.778 0 0 1 .574-.213h1.369a3.14 3.14 0 0 1 .633.059 1.43 1.43 0 0 1 .456.2 1.105 1.105 0 0 1 .316.368 2.214 2.214 0 0 1 .221.559l2.23 6.146h.029l2.311-6.131a3.234 3.234 0 0 1 .228-.567 1.268 1.268 0 0 1 .287-.375.992.992 0 0 1 .39-.206 2.157 2.157 0 0 1 .515-.059h1.413a1.112 1.112 0 0 1 .368.052.7.7 0 0 1 .258.162.786.786 0 0 1 .155.265 1.051 1.051 0 0 1 .052.353v9.2z" class="cls-1" data-name="Tracé 1244" transform="translate(-404.742 -76.523)"/>
    </g>
    <g id="Groupe_97" data-name="Groupe 97" transform="translate(9.981 18.865)">
        <path id="Tracé_1245" d="M144.963 267.539c0 .11 0 .2-.007.28a.794.794 0 0 1-.037.206.624.624 0 0 1-.066.162 1.105 1.105 0 0 1-.14.169 2.627 2.627 0 0 1-.42.3 4.43 4.43 0 0 1-.795.4 6.843 6.843 0 0 1-1.089.331 6.359 6.359 0 0 1-1.34.133 5.843 5.843 0 0 1-2.267-.42 4.53 4.53 0 0 1-1.722-1.237 5.654 5.654 0 0 1-1.1-2.017 9.047 9.047 0 0 1-.383-2.768 9.269 9.269 0 0 1 .412-2.863 6.1 6.1 0 0 1 1.163-2.127 5.045 5.045 0 0 1 1.789-1.332 5.731 5.731 0 0 1 2.311-.456 5.878 5.878 0 0 1 1.089.1 6.118 6.118 0 0 1 .979.265 4.438 4.438 0 0 1 .795.368 2.328 2.328 0 0 1 .486.346 1.146 1.146 0 0 1 .177.206.822.822 0 0 1 .066.162 1.645 1.645 0 0 1 .037.228c.007.088.015.191.015.309a2.237 2.237 0 0 1-.022.339.916.916 0 0 1-.059.236.357.357 0 0 1-.1.14.206.206 0 0 1-.132.044.769.769 0 0 1-.39-.191 5.819 5.819 0 0 0-.648-.427 4.959 4.959 0 0 0-.964-.427 4.117 4.117 0 0 0-1.354-.191 3.551 3.551 0 0 0-1.568.346 3.3 3.3 0 0 0-1.207 1.008 5.032 5.032 0 0 0-.78 1.634 9.029 9.029 0 0 0-.007 4.372 4.487 4.487 0 0 0 .758 1.575 3.2 3.2 0 0 0 1.214.957 3.972 3.972 0 0 0 1.634.324 4.339 4.339 0 0 0 1.347-.191 4.7 4.7 0 0 0 .979-.427 6.371 6.371 0 0 0 .67-.427.819.819 0 0 1 .412-.191.2.2 0 0 1 .118.029.269.269 0 0 1 .081.11.837.837 0 0 1 .044.236c.013.098.021.23.021.377z" class="cls-1" data-name="Tracé 1245" transform="translate(-135.6 -256.3)"/>
        <path id="Tracé_1246" d="M286.2 270.236a1.163 1.163 0 0 1 .081.353.273.273 0 0 1-.074.206.448.448 0 0 1-.265.088 4.372 4.372 0 0 1-.493.022c-.206 0-.368-.007-.493-.015a1.054 1.054 0 0 1-.28-.052.251.251 0 0 1-.14-.1.862.862 0 0 1-.088-.147l-1.1-3.143h-5.368l-1.045 3.106a.514.514 0 0 1-.081.155.337.337 0 0 1-.147.11.98.98 0 0 1-.272.066 3.756 3.756 0 0 1-.456.022 4.03 4.03 0 0 1-.471-.022.472.472 0 0 1-.258-.1.229.229 0 0 1-.066-.206 1.019 1.019 0 0 1 .088-.353l4.328-11.983a.508.508 0 0 1 .1-.177.469.469 0 0 1 .191-.11 1.182 1.182 0 0 1 .317-.052 8.885 8.885 0 0 1 1.023 0 1.736 1.736 0 0 1 .339.052.427.427 0 0 1 .2.11.643.643 0 0 1 .11.184zm-5.55-10.57h-.007l-2.223 6.426h4.49z" class="cls-1" data-name="Tracé 1246" transform="translate(-264.907 -257.782)"/>
        <path id="Tracé_1247" d="M462.8 271.145a.28.28 0 0 1-.029.14.286.286 0 0 1-.132.1 1.508 1.508 0 0 1-.28.059 4.081 4.081 0 0 1-.478.022 3.4 3.4 0 0 1-.427-.022.989.989 0 0 1-.265-.066.376.376 0 0 1-.155-.125.836.836 0 0 1-.1-.2l-1.185-3.04c-.14-.346-.287-.662-.434-.949a3.343 3.343 0 0 0-.53-.751 2.258 2.258 0 0 0-.729-.486 2.6 2.6 0 0 0-1.008-.177H455.9v5.491a.226.226 0 0 1-.044.14.294.294 0 0 1-.14.1 1.353 1.353 0 0 1-.258.059 3.233 3.233 0 0 1-.412.022 3.152 3.152 0 0 1-.412-.022 1.45 1.45 0 0 1-.265-.059.251.251 0 0 1-.14-.1.235.235 0 0 1-.037-.14V259.2a.636.636 0 0 1 .206-.545.713.713 0 0 1 .434-.155h2.745c.324 0 .6.007.81.022s.412.037.582.052a4.774 4.774 0 0 1 1.318.412 3.146 3.146 0 0 1 .964.707 2.812 2.812 0 0 1 .581.979 3.957 3.957 0 0 1 .015 2.385 2.924 2.924 0 0 1-.5.905 3.219 3.219 0 0 1-.788.685 5.054 5.054 0 0 1-1.023.486 2.724 2.724 0 0 1 .581.353 3.275 3.275 0 0 1 .486.515 5.8 5.8 0 0 1 .427.685c.132.258.265.552.4.876l1.156 2.841a3.907 3.907 0 0 1 .177.5 1.619 1.619 0 0 1 .037.242zm-2.583-9.061a2.275 2.275 0 0 0-.339-1.281 1.939 1.939 0 0 0-1.134-.751 3.727 3.727 0 0 0-.567-.1 8.394 8.394 0 0 0-.824-.029h-1.443v4.35h1.678a3.716 3.716 0 0 0 1.17-.162 2.4 2.4 0 0 0 .824-.456 1.8 1.8 0 0 0 .486-.692 2.667 2.667 0 0 0 .153-.878z" class="cls-1" data-name="Tracé 1247" transform="translate(-430.75 -258.338)"/>
        <path id="Tracé_1248" d="M611.884 270.7a2.068 2.068 0 0 1-.022.316.785.785 0 0 1-.066.221.348.348 0 0 1-.118.133.249.249 0 0 1-.147.044h-6.19a.713.713 0 0 1-.434-.155.657.657 0 0 1-.206-.545V259.2a.636.636 0 0 1 .206-.545.713.713 0 0 1 .434-.155h6.124a.335.335 0 0 1 .147.037.271.271 0 0 1 .1.133 1.08 1.08 0 0 1 .066.228 2.39 2.39 0 0 1 0 .648.787.787 0 0 1-.066.221.3.3 0 0 1-.1.125.245.245 0 0 1-.147.037h-5.042v4.048h4.328a.265.265 0 0 1 .147.044.367.367 0 0 1 .11.125.656.656 0 0 1 .066.221 2.2 2.2 0 0 1 .022.331 1.9 1.9 0 0 1-.022.309.616.616 0 0 1-.066.206.266.266 0 0 1-.11.11.311.311 0 0 1-.147.037h-4.328v4.615h5.116a.265.265 0 0 1 .147.044.388.388 0 0 1 .118.125.488.488 0 0 1 .066.221c.006.088.014.199.014.335z" class="cls-1" data-name="Tracé 1248" transform="translate(-570.172 -258.338)"/>
    </g>
    <g id="Groupe_98" data-name="Groupe 98" transform="translate(40.475 15.324)">
        <path id="Tracé_1249" d="M771.268 208.215l.088.022a.216.216 0 0 1 .147.169.729.729 0 0 1 .015.125l-.022.191a.055.055 0 0 1-.007.029.274.274 0 0 1-.258.213 1.305 1.305 0 0 1-.169-.007c-.125-.022-.25-.044-.368-.074-.044-.007-.088-.029-.125-.037a.279.279 0 0 1-.169-.133.741.741 0 0 1-.022-.125.489.489 0 0 1 .044-.25.236.236 0 0 1 .191-.11.215.215 0 0 0 .066-.015.364.364 0 0 0 .125-.015h.287c.037.022.073.007.11.007a.1.1 0 0 0 .067.01z" class="cls-1" data-name="Tracé 1249" transform="translate(-754.147 -208.2)"/>
        <path id="Tracé_1250" d="M738.958 210.214a.581.581 0 0 0-.044.25.735.735 0 0 0 .022.125h-.036a4.039 4.039 0 0 0-.427.022 2.151 2.151 0 0 0-.53.132 1.676 1.676 0 0 0-.471.272 2.162 2.162 0 0 0-.464.537 3.188 3.188 0 0 0-.206.456 3.38 3.38 0 0 0-.118.471c-.022.118-.029.243-.052.361v.007c-.015.206-.015.412-.015.611.015.081.007.169.022.258.007.052.007.1.015.147.015.125.037.25.059.375a7.341 7.341 0 0 0 .235.876c.066.2.147.4.228.589.1.213.191.434.3.64.132.258.272.508.427.751.088.147.184.294.28.434l.25.361c.007.007.007.022.015.029s-.022.007-.029.015a.614.614 0 0 0-.243.162c-.015.015-.022.029-.037.037s-.029-.029-.044-.044a23.98 23.98 0 0 1-.449-.662c-.133-.206-.25-.412-.375-.618s-.243-.449-.353-.677a8.877 8.877 0 0 1-.361-.861 8.216 8.216 0 0 1-.221-.721c-.037-.162-.074-.316-.1-.478a3.635 3.635 0 0 1-.044-.4 4.736 4.736 0 0 1-.022-.559c.007-.11.007-.221.022-.331.007-.052.007-.1.015-.155.015-.147.044-.294.074-.442.022-.1.052-.2.081-.3a2.827 2.827 0 0 1 .25-.574 2.6 2.6 0 0 1 .221-.331 2.013 2.013 0 0 1 .331-.331 1.841 1.841 0 0 1 .412-.258 2.215 2.215 0 0 1 .486-.162c.1-.022.2-.029.3-.044a4.094 4.094 0 0 1 .427-.007.464.464 0 0 0 .169.037z" class="cls-1" data-name="Tracé 1250" transform="translate(-722.463 -210.03)"/>
        <path id="Tracé_1251" d="M570.5 331.913a5.8 5.8 0 0 1-1.1-1.06 6.966 6.966 0 0 1-1.244-2.466c-.28-1.03.854-.545 1.369.574a5.076 5.076 0 0 0 1.082 1.531 4.619 4.619 0 0 0 1.141.817 5.361 5.361 0 0 0 .935.368 2.624 2.624 0 0 0 .957.074 4.447 4.447 0 0 0 1.73-.515 6.452 6.452 0 0 0 1.273-.905 11.377 11.377 0 0 0 1.06-1.089 16.425 16.425 0 0 0 1.186-1.575c.265-.39.515-.788.751-1.185.25-.42.486-.846.729-1.266.169-.287.324-.581.478-.876s.294-.574.434-.869a11.883 11.883 0 0 0 .486-1.192 10.214 10.214 0 0 0 .4-1.479 4.655 4.655 0 0 0 .059-1.237c-.029-.331-.074-.67-.11-1-.1-.81-.184-1.612-.25-2.422-.029-.368-.052-.736-.088-1.1a2.542 2.542 0 0 1-.015-.339c0-.037.007-.081.007-.118a.114.114 0 0 1 .066-.11c.052-.022.1-.052.14-.074a.388.388 0 0 0 .074-.044.145.145 0 0 0 .081-.015 1.018 1.018 0 0 1 .471-.029h.052l.184.066a.1.1 0 0 1 .074.081c.007.052.022.1.029.162.015.14.022.28.029.42.015.383.029.765.052 1.148.037.523.074 1.053.147 1.575a5.7 5.7 0 0 0 .184.854 2.456 2.456 0 0 0 .228.537 1.1 1.1 0 0 0 .346.368.891.891 0 0 0 .559.162 1.147 1.147 0 0 0 .317-.059 2.911 2.911 0 0 0 .353-.133c.707-.324 1.413-.64 2.112-.986.346-.169.677-.353 1.023-.523.118-.059.236-.118.361-.184.037-.022.044-.015.074.015a3.3 3.3 0 0 0 .162.169.163.163 0 0 0 .022.037 1.1 1.1 0 0 1 .213.515c0 .007.007.015.007.022-.015.074-.007.147-.022.228a.15.15 0 0 1-.088.118c-.361.2-.729.39-1.1.559-.28.125-.552.28-.824.427-.449.243-.913.464-1.369.692-.132.066-.265.132-.4.206a4.4 4.4 0 0 0-1.075.788 7.486 7.486 0 0 0-.677.773 13.434 13.434 0 0 0-.78 1.134c-.221.346-.42.7-.633 1.045-.236.39-.471.78-.707 1.163l-.618 1.016c-.214.346-.427.685-.655 1.023-.14.206-.28.42-.427.626s-.294.412-.442.611-.287.383-.434.567a13.142 13.142 0 0 1-2.613 2.539 4.729 4.729 0 0 1-1.141.611 4.538 4.538 0 0 1-2.238.221 4.871 4.871 0 0 1-1.281-.353c-.037-.015-.081-.037-.118-.052a.817.817 0 0 0-.177-.1.217.217 0 0 0-.1-.037c-.162-.1-.324-.191-.486-.28a.4.4 0 0 0-.125-.1.242.242 0 0 0-.1-.07z" class="cls-1" data-name="Tracé 1251" transform="translate(-566.766 -306.483)"/>
        <path id="Tracé_1252" d="M851.715 298.363v-.015a.613.613 0 0 0-.015-.348v-.029c.015-.015.037-.007.059-.007.243-.015.486-.044.721-.081.213-.029.427-.066.64-.1s.442-.1.655-.147a8.94 8.94 0 0 0 .758-.228 7.093 7.093 0 0 0 .913-.39c.125-.066.25-.133.368-.206s.221-.147.331-.221a4.561 4.561 0 0 0 .464-.383 3.071 3.071 0 0 0 .368-.39 3.163 3.163 0 0 0 .375-.552 2.2 2.2 0 0 0 .221-.6 1.878 1.878 0 0 0-.162-1.215 1.99 1.99 0 0 0-.155-.272c-.059-.088-.125-.169-.184-.25-.015-.022-.037-.044-.052-.066a.447.447 0 0 0 .177-.11.7.7 0 0 0 .11-.147 1.52 1.52 0 0 1 .206.228 2.345 2.345 0 0 1 .228.324 2.124 2.124 0 0 1 .2.412 2.011 2.011 0 0 1 .125.721 2.164 2.164 0 0 1-.088.618 2.773 2.773 0 0 1-.191.486 3.98 3.98 0 0 1-.331.53c-.074.1-.147.184-.221.272a1.944 1.944 0 0 1-.213.213.038.038 0 0 0-.015.029c-.206.169-.4.339-.611.515a.064.064 0 0 0-.044.022 2.888 2.888 0 0 1-.368.243 6.288 6.288 0 0 1-.626.324 6.087 6.087 0 0 1-.64.25 9.622 9.622 0 0 1-1 .28c-.265.059-.53.11-.795.147s-.559.081-.839.1c-.11.007-.221.022-.331.029a.031.031 0 0 1-.038.014z" class="cls-1" data-name="Tracé 1252" transform="translate(-829.486 -286.388)"/>
        <path id="Tracé_1253" d="M552.542 485.272a1.235 1.235 0 0 1-.029.162 1.311 1.311 0 0 1-.191.427.192.192 0 0 0-.037.066c-.015.007-.022.022-.037.029a1.319 1.319 0 0 1-.707.449 1.119 1.119 0 0 1-.493.022 1.3 1.3 0 0 1-.986-.692 1.186 1.186 0 0 1-.14-.449.044.044 0 0 0-.007-.029c0-.007-.015-.007-.015-.007v-.258c.007 0 .015 0 .015-.007a.027.027 0 0 0 .007-.022 1.3 1.3 0 0 1 .736-1.03 1.226 1.226 0 0 1 .582-.133 1.282 1.282 0 0 1 .979.449 1.268 1.268 0 0 1 .309.648 2.144 2.144 0 0 1 .022.213c0 .059-.008.111-.008.162zm-.39-.132a.826.826 0 0 0-.125-.471.925.925 0 0 0-.361-.353.871.871 0 0 0-.427-.1.845.845 0 0 0-.353.074 1.024 1.024 0 0 0-.3.2.878.878 0 0 0-.206.309.984.984 0 0 0-.066.331.863.863 0 0 0 .133.486.93.93 0 0 0 .331.324 1.084 1.084 0 0 0 .456.125 1.05 1.05 0 0 0 .464-.133.893.893 0 0 0 .331-.331.8.8 0 0 0 .123-.461z" class="cls-1" data-name="Tracé 1253" transform="translate(-549.9 -463.515)"/>
        <path id="Tracé_1254" d="M915.535 284.01a.7.7 0 0 1-.11.147.549.549 0 0 1-.177.11.253.253 0 0 1-.177-.029 1.552 1.552 0 0 1-.228-.155c-.074-.059-.14-.118-.213-.177a.554.554 0 0 1-.11-.118.257.257 0 0 1-.044-.1.239.239 0 0 1 .044-.221 1.08 1.08 0 0 1 .228-.221.244.244 0 0 1 .28 0 .9.9 0 0 1 .125.11c.1.118.2.221.287.346a1.028 1.028 0 0 1 .074.118.248.248 0 0 1 .021.19z" class="cls-1" data-name="Tracé 1254" transform="translate(-887.631 -277.68)"/>
        <path id="Tracé_1255" d="M557.331 490.42a.787.787 0 0 1-.125.464.951.951 0 0 1-.331.331 1.023 1.023 0 0 1-.464.132 1.084 1.084 0 0 1-.456-.125.875.875 0 0 1-.331-.324.863.863 0 0 1-.132-.486.887.887 0 0 1 .066-.331.878.878 0 0 1 .206-.309.9.9 0 0 1 .3-.2.846.846 0 0 1 .353-.074.96.96 0 0 1 .427.1.836.836 0 0 1 .361.353.844.844 0 0 1 .126.469zm-.913-.773a.777.777 0 1 0 .773.773.773.773 0 0 0-.772-.773z" class="cls-1" data-name="Tracé 1255" transform="translate(-555.079 -468.795)"/>
        <path id="Tracé_1256" d="M558.275 491.495a.78.78 0 1 1-.78.773.774.774 0 0 1 .78-.773z" class="cls-1" data-name="Tracé 1256" transform="translate(-556.935 -470.643)"/>
    </g>
    <g id="Groupe_100" data-name="Groupe 100" transform="translate(50.787)">
        <g id="Groupe_99" data-name="Groupe 99">
            <path id="Tracé_1257" d="M722.622 17.247C715.438 3.366 704.662-1.213 690 2.924c2.149-3.275 11.8-3.842 18.166-1.472 7.61 2.834 15.184 10.621 14.456 15.795z" class="cls-1" data-name="Tracé 1257" transform="translate(-690 -.002)"/>
            <path id="Tracé_1258" d="M712.9 79.646c7.6-5.174 23.119-.707 26.189 10.9-.758-.53-1.281-.714-1.524-1.082-6.19-9.554-12.049-12.034-22.913-9.694a8.869 8.869 0 0 1-1.752-.124z" class="cls-1" data-name="Tracé 1258" transform="translate(-711.214 -71.807)"/>
            <path id="Tracé_1259" d="M749.8 162.157a11.412 11.412 0 0 1 10.974-.287c3.231 1.531 5.793 3.761 6.426 7.751-4.173-6.427-9.76-9.194-17.4-7.464z" class="cls-1" data-name="Tracé 1259" transform="translate(-745.398 -148.783)"/>
        </g>
    </g>
</svg>
