<svg xmlns="http://www.w3.org/2000/svg" viewBox="0 0 166.45 83.352">
    <defs>
        <style>
            .cls-1{fill:#6fa6f0}.cls-2{fill:#b7b7b7}.cls-3{fill:#b2b2b2}
        </style>
    </defs>
    <g id="Groupe_101" data-name="Groupe 101" transform="translate(0 -.002)">
        <g id="Groupe_96" data-name="Groupe 96" transform="translate(0 10.909)">
            <path id="Tracé_1240" d="M19.48 84.708a15.22 15.22 0 0 1-.631 4.58 9.281 9.281 0 0 1-1.894 3.435 8.049 8.049 0 0 1-3.112 2.143 11.651 11.651 0 0 1-4.287.734 12.568 12.568 0 0 1-4.2-.631 7.13 7.13 0 0 1-2.98-1.923 8.189 8.189 0 0 1-1.789-3.273A17.027 17.027 0 0 1 0 85.075a14.763 14.763 0 0 1 .631-4.492 9.088 9.088 0 0 1 1.894-3.391 8.377 8.377 0 0 1 3.112-2.143 11.426 11.426 0 0 1 4.3-.749 12.635 12.635 0 0 1 4.125.617 7.4 7.4 0 0 1 2.995 1.908 8.148 8.148 0 0 1 1.806 3.259 15.337 15.337 0 0 1 .617 4.624zm-4.389.22a16.4 16.4 0 0 0-.25-2.951 6.453 6.453 0 0 0-.866-2.275 4.246 4.246 0 0 0-1.629-1.468 5.475 5.475 0 0 0-2.54-.514 5.136 5.136 0 0 0-2.584.587 4.731 4.731 0 0 0-1.674 1.556 6.346 6.346 0 0 0-.9 2.261 13.717 13.717 0 0 0-.264 2.745 17.01 17.01 0 0 0 .25 3.024 6.906 6.906 0 0 0 .851 2.3 3.911 3.911 0 0 0 1.635 1.459 5.7 5.7 0 0 0 2.554.5 5.3 5.3 0 0 0 2.584-.573 4.6 4.6 0 0 0 1.674-1.556 6.575 6.575 0 0 0 .9-2.3 14.165 14.165 0 0 0 .259-2.795z" class="cls-1" data-name="Tracé 1240" transform="translate(0 -74.3)"/>
            <path id="Tracé_1241" d="M169.278 83.039a8 8 0 0 1-.543 3.068 5.864 5.864 0 0 1-1.571 2.246 7.187 7.187 0 0 1-2.54 1.395 11.6 11.6 0 0 1-3.538.47h-1.718v6.577a.388.388 0 0 1-.1.279.634.634 0 0 1-.338.206 3.87 3.87 0 0 1-.631.132 9.492 9.492 0 0 1-1.013.044 9.885 9.885 0 0 1-1.013-.044 2.911 2.911 0 0 1-.646-.132.634.634 0 0 1-.338-.206.483.483 0 0 1-.088-.279V78.283a1.456 1.456 0 0 1 .4-1.116 1.423 1.423 0 0 1 1.028-.367h4.844c.484 0 .954.015 1.395.059a13.871 13.871 0 0 1 1.585.235 6.991 6.991 0 0 1 1.864.675 5.468 5.468 0 0 1 1.615 1.248 5.223 5.223 0 0 1 1.013 1.762 7.173 7.173 0 0 1 .333 2.26zm-4.375.294a3.745 3.745 0 0 0-.382-1.776 2.574 2.574 0 0 0-.94-1.028 3.149 3.149 0 0 0-1.174-.426 8.816 8.816 0 0 0-1.262-.088h-1.776V87h1.879a4.6 4.6 0 0 0 1.674-.264 2.822 2.822 0 0 0 1.1-.749 3.3 3.3 0 0 0 .646-1.16 4.572 4.572 0 0 0 .232-1.494z" class="cls-1" data-name="Tracé 1241" transform="translate(-132.417 -76.433)"/>
            <path id="Tracé_1242" d="M272.837 78.5a6.109 6.109 0 0 1-.044.793 2.029 2.029 0 0 1-.117.528.655.655 0 0 1-.206.294.41.41 0 0 1-.264.088h-5.138v16.591a.387.387 0 0 1-.1.279.7.7 0 0 1-.338.206 4.1 4.1 0 0 1-.646.132 9.492 9.492 0 0 1-1.013.044 9.686 9.686 0 0 1-1.013-.044 2.911 2.911 0 0 1-.646-.132.581.581 0 0 1-.338-.206.412.412 0 0 1-.1-.279V80.206h-5.153a.41.41 0 0 1-.264-.088.782.782 0 0 1-.191-.294 2.029 2.029 0 0 1-.117-.528 6.11 6.11 0 0 1-.044-.793 6.2 6.2 0 0 1 .044-.807 2.89 2.89 0 0 1 .117-.528.712.712 0 0 1 .191-.279.41.41 0 0 1 .264-.088h14.5a.473.473 0 0 1 .264.088.861.861 0 0 1 .206.279 2.029 2.029 0 0 1 .117.528c.014.22.029.484.029.804z" class="cls-1" data-name="Tracé 1242" transform="translate(-219.358 -76.433)"/>
            <path id="Tracé_1243" d="M383.684 96.2a.387.387 0 0 1-.1.279.634.634 0 0 1-.338.206 3.871 3.871 0 0 1-.631.132 9.492 9.492 0 0 1-1.013.044 9.885 9.885 0 0 1-1.013-.044 2.911 2.911 0 0 1-.646-.132.581.581 0 0 1-.338-.206.412.412 0 0 1-.1-.279V76.761a.387.387 0 0 1 .1-.279.682.682 0 0 1 .352-.206 4.1 4.1 0 0 1 .646-.132 9.383 9.383 0 0 1 1-.044 9.492 9.492 0 0 1 1.013.044 2.759 2.759 0 0 1 .631.132.666.666 0 0 1 .338.206.412.412 0 0 1 .1.279z" class="cls-1" data-name="Tracé 1243" transform="translate(-323.79 -75.836)"/>
            <path id="Tracé_1244" d="M460.9 96.709a.452.452 0 0 1-.088.279.539.539 0 0 1-.323.206 3.35 3.35 0 0 1-.617.132 8.609 8.609 0 0 1-.969.044 8.5 8.5 0 0 1-.954-.044 2.473 2.473 0 0 1-.6-.132.649.649 0 0 1-.323-.206.483.483 0 0 1-.088-.279v-16.75h-.029l-5.96 16.735a.871.871 0 0 1-.206.338 1 1 0 0 1-.4.22 2.257 2.257 0 0 1-.631.1c-.25.015-.558.029-.925.029a8.119 8.119 0 0 1-.925-.044 2.948 2.948 0 0 1-.631-.132 1.271 1.271 0 0 1-.4-.22.683.683 0 0 1-.191-.308l-5.755-16.735h-.015v16.767a.452.452 0 0 1-.088.279.539.539 0 0 1-.323.206 4.008 4.008 0 0 1-.617.132 8.608 8.608 0 0 1-.969.044 8.5 8.5 0 0 1-.954-.044 2.794 2.794 0 0 1-.617-.132.539.539 0 0 1-.323-.206.483.483 0 0 1-.088-.279V78.374a1.674 1.674 0 0 1 .426-1.233 1.551 1.551 0 0 1 1.145-.426h2.73a6.262 6.262 0 0 1 1.262.117 2.853 2.853 0 0 1 .91.4 2.2 2.2 0 0 1 .631.734 4.416 4.416 0 0 1 .44 1.116l4.448 12.258h.059l4.609-12.228a6.452 6.452 0 0 1 .455-1.13 2.527 2.527 0 0 1 .573-.749 1.979 1.979 0 0 1 .778-.411 4.3 4.3 0 0 1 1.028-.117h2.819a2.216 2.216 0 0 1 .734.1 1.4 1.4 0 0 1 .514.323 1.568 1.568 0 0 1 .308.528 2.1 2.1 0 0 1 .1.7v18.35z" class="cls-1" data-name="Tracé 1244" transform="translate(-372.763 -76.348)"/>
        </g>
        <g id="Groupe_97" data-name="Groupe 97" transform="translate(19.906 37.626)">
            <path id="Tracé_1245" d="M154.273 278.716c0 .22 0 .4-.015.558a1.585 1.585 0 0 1-.073.411 1.246 1.246 0 0 1-.132.323 2.2 2.2 0 0 1-.279.338 5.236 5.236 0 0 1-.837.6 8.837 8.837 0 0 1-1.585.793 13.656 13.656 0 0 1-2.173.661 12.68 12.68 0 0 1-2.672.264 11.652 11.652 0 0 1-4.521-.837 9.035 9.035 0 0 1-3.435-2.466 11.276 11.276 0 0 1-2.187-4.022 18.044 18.044 0 0 1-.763-5.52 18.487 18.487 0 0 1 .822-5.711 12.174 12.174 0 0 1 2.319-4.242 10.063 10.063 0 0 1 3.567-2.657 11.43 11.43 0 0 1 4.609-.91 11.723 11.723 0 0 1 2.173.206 12.2 12.2 0 0 1 1.952.528 8.853 8.853 0 0 1 1.585.734 4.645 4.645 0 0 1 .969.69 2.288 2.288 0 0 1 .352.411 1.644 1.644 0 0 1 .132.323 3.284 3.284 0 0 1 .073.455c.015.176.029.382.029.617a4.459 4.459 0 0 1-.044.675 1.827 1.827 0 0 1-.117.47.711.711 0 0 1-.191.279.41.41 0 0 1-.264.088 1.534 1.534 0 0 1-.778-.382 11.609 11.609 0 0 0-1.292-.851 9.892 9.892 0 0 0-1.923-.851 8.211 8.211 0 0 0-2.7-.382 7.082 7.082 0 0 0-3.127.69 6.582 6.582 0 0 0-2.408 2.011 10.036 10.036 0 0 0-1.556 3.259 18.007 18.007 0 0 0-.015 8.72 8.947 8.947 0 0 0 1.512 3.141 6.376 6.376 0 0 0 2.422 1.908 7.922 7.922 0 0 0 3.259.646 8.654 8.654 0 0 0 2.686-.382 9.376 9.376 0 0 0 1.952-.851 12.7 12.7 0 0 0 1.336-.851 1.633 1.633 0 0 1 .822-.382.4.4 0 0 1 .235.059.537.537 0 0 1 .161.22 1.671 1.671 0 0 1 .088.47c.017.191.032.456.032.749z" class="cls-2" data-name="Tracé 1245" transform="translate(-135.6 -256.3)"/>
            <path id="Tracé_1246" d="M297.16 282.5a2.322 2.322 0 0 1 .161.7.544.544 0 0 1-.147.411.893.893 0 0 1-.529.176 8.714 8.714 0 0 1-.984.044c-.411 0-.734-.015-.984-.029a2.1 2.1 0 0 1-.558-.1.5.5 0 0 1-.279-.191 1.716 1.716 0 0 1-.176-.294l-2.2-6.268h-10.7l-2.085 6.195a1.025 1.025 0 0 1-.161.308.673.673 0 0 1-.294.22 1.952 1.952 0 0 1-.543.132 7.5 7.5 0 0 1-.91.044 8.045 8.045 0 0 1-.94-.044.94.94 0 0 1-.514-.191.456.456 0 0 1-.132-.411 2.03 2.03 0 0 1 .176-.7l8.632-23.9a1.015 1.015 0 0 1 .206-.352.936.936 0 0 1 .382-.22 2.355 2.355 0 0 1 .631-.1c.264-.015.587-.029.984-.029.426 0 .778.015 1.057.029a3.463 3.463 0 0 1 .675.1.852.852 0 0 1 .4.22 1.282 1.282 0 0 1 .22.367zm-11.069-21.08h-.015l-4.433 12.816h8.957z" class="cls-2" data-name="Tracé 1246" transform="translate(-254.691 -257.665)"/>
            <path id="Tracé_1247" d="M471.361 283.72a.558.558 0 0 1-.059.279.571.571 0 0 1-.264.206 3.006 3.006 0 0 1-.558.117 8.147 8.147 0 0 1-.954.044 6.783 6.783 0 0 1-.851-.044 1.97 1.97 0 0 1-.529-.132.749.749 0 0 1-.308-.25 1.666 1.666 0 0 1-.191-.4l-2.363-6.063a23.533 23.533 0 0 0-.866-1.894 6.668 6.668 0 0 0-1.057-1.5 4.5 4.5 0 0 0-1.453-.969 5.189 5.189 0 0 0-2.011-.352h-2.29v10.958a.452.452 0 0 1-.088.279.587.587 0 0 1-.279.191 2.7 2.7 0 0 1-.514.117 6.442 6.442 0 0 1-.822.044 6.282 6.282 0 0 1-.822-.044 2.887 2.887 0 0 1-.529-.117.5.5 0 0 1-.279-.191.469.469 0 0 1-.073-.279v-23.825a1.269 1.269 0 0 1 .411-1.086 1.422 1.422 0 0 1 .866-.308h5.476c.646 0 1.189.015 1.615.044s.822.073 1.16.1a9.523 9.523 0 0 1 2.628.822 6.275 6.275 0 0 1 1.923 1.409 5.609 5.609 0 0 1 1.16 1.952 7.892 7.892 0 0 1 .029 4.756 5.832 5.832 0 0 1-1 1.806 6.419 6.419 0 0 1-1.571 1.365 10.083 10.083 0 0 1-2.041.969 5.433 5.433 0 0 1 1.16.7 6.533 6.533 0 0 1 .969 1.028 11.557 11.557 0 0 1 .851 1.365c.264.514.528 1.1.793 1.747l2.3 5.666a7.8 7.8 0 0 1 .352 1 3.225 3.225 0 0 1 .079.49zm-5.153-18.071a4.538 4.538 0 0 0-.675-2.554 3.866 3.866 0 0 0-2.261-1.5 7.435 7.435 0 0 0-1.13-.206c-.411-.044-.969-.059-1.644-.059h-2.878v8.676h3.347a7.411 7.411 0 0 0 2.334-.323 4.785 4.785 0 0 0 1.644-.91 3.584 3.584 0 0 0 .969-1.38 5.321 5.321 0 0 0 .294-1.744z" class="cls-2" data-name="Tracé 1247" transform="translate(-407.43 -258.177)"/>
            <path id="Tracé_1248" d="M619.028 282.825a4.121 4.121 0 0 1-.044.631 1.563 1.563 0 0 1-.132.44.693.693 0 0 1-.235.264.5.5 0 0 1-.294.088h-12.346a1.421 1.421 0 0 1-.866-.308 1.311 1.311 0 0 1-.411-1.086v-22.959a1.269 1.269 0 0 1 .411-1.086 1.421 1.421 0 0 1 .866-.308h12.214a.669.669 0 0 1 .294.073.54.54 0 0 1 .206.264 2.146 2.146 0 0 1 .132.455 4.76 4.76 0 0 1 0 1.292 1.565 1.565 0 0 1-.132.44.59.59 0 0 1-.206.25.488.488 0 0 1-.294.073h-10.056v8.074h8.632a.53.53 0 0 1 .294.088.731.731 0 0 1 .22.25 1.308 1.308 0 0 1 .132.44 4.389 4.389 0 0 1 .044.661 3.794 3.794 0 0 1-.044.617 1.227 1.227 0 0 1-.132.411.529.529 0 0 1-.22.22.621.621 0 0 1-.294.073h-8.632v9.2h10.2a.529.529 0 0 1 .294.088.774.774 0 0 1 .235.25.974.974 0 0 1 .132.44c.017.18.032.4.032.665z" class="cls-2" data-name="Tracé 1248" transform="translate(-535.836 -258.177)"/>
        </g>
        <g id="Groupe_98" data-name="Groupe 98" transform="translate(80.725 30.565)">
            <path id="Tracé_1249" d="M772.155 208.229l.176.044a.431.431 0 0 1 .294.338 1.449 1.449 0 0 1 .029.25c-.015.132-.029.264-.044.382a.111.111 0 0 1-.015.059.547.547 0 0 1-.514.426 2.6 2.6 0 0 1-.338-.015c-.25-.044-.5-.088-.734-.147-.088-.015-.176-.059-.25-.073a.556.556 0 0 1-.338-.264 1.48 1.48 0 0 1-.044-.25.975.975 0 0 1 .088-.5.471.471 0 0 1 .382-.22.428.428 0 0 0 .132-.029.728.728 0 0 0 .25-.029h.573c.073.044.147.015.22.015a.2.2 0 0 0 .133.013z" class="cls-3" data-name="Tracé 1249" transform="translate(-738.009 -208.2)"/>
            <path id="Tracé_1250" d="M741.726 210.252a1.158 1.158 0 0 0-.088.5 1.48 1.48 0 0 0 .044.25h-.073a8.06 8.06 0 0 0-.851.044 4.291 4.291 0 0 0-1.057.264 3.34 3.34 0 0 0-.94.543 4.311 4.311 0 0 0-.925 1.072 6.373 6.373 0 0 0-.411.91 6.759 6.759 0 0 0-.235.94c-.044.235-.059.484-.1.719v.015c-.029.411-.029.822-.029 1.218.029.161.015.338.044.514.015.1.015.191.029.294.029.25.073.5.117.749a14.624 14.624 0 0 0 .47 1.747c.132.4.294.793.455 1.174.191.426.382.866.6 1.277.264.514.543 1.013.851 1.5.176.294.367.587.558.866.161.25.338.484.5.719.015.015.015.044.029.059-.015.015-.044.015-.059.029a1.225 1.225 0 0 0-.484.323c-.029.029-.044.059-.073.073s-.059-.059-.088-.088c-.308-.44-.6-.866-.9-1.321-.264-.411-.5-.822-.749-1.233a21.9 21.9 0 0 1-.7-1.351 17.674 17.674 0 0 1-.719-1.718c-.176-.47-.308-.954-.44-1.439-.073-.323-.147-.631-.191-.954a7.273 7.273 0 0 1-.088-.793 9.433 9.433 0 0 1-.044-1.116c.015-.22.015-.44.044-.661.015-.1.015-.206.029-.308.029-.294.088-.587.147-.881.044-.206.1-.4.161-.6a5.638 5.638 0 0 1 .5-1.145 5.173 5.173 0 0 1 .44-.661 4.017 4.017 0 0 1 .661-.661 3.675 3.675 0 0 1 .822-.514 4.421 4.421 0 0 1 .969-.323c.191-.044.4-.059.6-.088a8.169 8.169 0 0 1 .851-.015.926.926 0 0 0 .323.071z" class="cls-3" data-name="Tracé 1250" transform="translate(-708.829 -209.885)"/>
            <path id="Tracé_1251" d="M572.876 349.437a11.564 11.564 0 0 1-2.2-2.114 13.894 13.894 0 0 1-2.481-4.918c-.558-2.055 1.7-1.086 2.73 1.145a10.125 10.125 0 0 0 2.158 3.053 9.214 9.214 0 0 0 2.275 1.63 10.694 10.694 0 0 0 1.864.734 5.232 5.232 0 0 0 1.908.147 8.869 8.869 0 0 0 3.45-1.028 12.867 12.867 0 0 0 2.54-1.806 22.717 22.717 0 0 0 2.114-2.173c.484-.573.954-1.16 1.395-1.762.338-.455.661-.91.969-1.38a46.952 46.952 0 0 0 1.5-2.363c.5-.837.969-1.688 1.453-2.525.338-.573.646-1.16.954-1.747s.587-1.145.866-1.732a23.73 23.73 0 0 0 .969-2.378 20.39 20.39 0 0 0 .807-2.951 9.276 9.276 0 0 0 .117-2.466c-.059-.661-.147-1.336-.22-2a136.246 136.246 0 0 1-.5-4.83c-.059-.734-.1-1.468-.176-2.2a5.075 5.075 0 0 1-.029-.675c0-.073.015-.161.015-.235a.228.228 0 0 1 .132-.22c.1-.044.191-.1.279-.147a.774.774 0 0 0 .147-.088.29.29 0 0 0 .161-.029 2.031 2.031 0 0 1 .94-.059h.1c.117.044.25.088.367.132a.2.2 0 0 1 .147.161c.015.1.044.206.059.323.029.279.044.558.059.837.029.763.059 1.527.1 2.29.073 1.042.147 2.1.294 3.141a11.358 11.358 0 0 0 .367 1.7 4.9 4.9 0 0 0 .455 1.072 2.2 2.2 0 0 0 .69.734 1.778 1.778 0 0 0 1.116.323 2.285 2.285 0 0 0 .631-.117 5.8 5.8 0 0 0 .7-.264c1.409-.646 2.819-1.277 4.213-1.967.69-.338 1.351-.7 2.041-1.042.235-.117.47-.235.719-.367.073-.044.088-.029.147.029.1.117.22.235.323.338a.321.321 0 0 0 .044.073 2.2 2.2 0 0 1 .426 1.028c0 .015.015.029.015.044-.029.147-.015.294-.044.455a.3.3 0 0 1-.176.235 32.4 32.4 0 0 1-2.187 1.116c-.558.25-1.1.558-1.644.851-.9.484-1.82.925-2.73 1.38-.264.132-.528.264-.793.411a8.769 8.769 0 0 0-2.143 1.571 14.916 14.916 0 0 0-1.351 1.541 26.772 26.772 0 0 0-1.556 2.261c-.44.69-.837 1.395-1.263 2.085-.47.778-.94 1.556-1.409 2.319l-1.233 2.026c-.426.69-.851 1.365-1.307 2.041-.279.411-.558.837-.851 1.248s-.587.822-.881 1.218-.573.763-.866 1.13a26.211 26.211 0 0 1-5.211 5.065 9.433 9.433 0 0 1-2.275 1.218 9.052 9.052 0 0 1-4.463.44 9.716 9.716 0 0 1-2.554-.7c-.073-.029-.161-.073-.235-.1a1.637 1.637 0 0 0-.352-.191.433.433 0 0 0-.191-.073c-.323-.191-.646-.382-.969-.558a.807.807 0 0 0-.25-.191.483.483 0 0 0-.216-.149z" class="cls-3" data-name="Tracé 1251" transform="translate(-565.433 -298.718)"/>
            <path id="Tracé_1252" d="M851.729 304.094v-.029a1.223 1.223 0 0 0-.029-.69v-.059c.029-.029.073-.015.117-.015.484-.029.969-.088 1.439-.161.426-.059.851-.132 1.277-.206s.881-.191 1.307-.294a17.898 17.898 0 0 0 1.512-.455 14.145 14.145 0 0 0 1.82-.778c.25-.132.5-.264.734-.411s.44-.294.661-.44a9.114 9.114 0 0 0 .925-.763 6.14 6.14 0 0 0 .734-.778 6.318 6.318 0 0 0 .749-1.1 4.389 4.389 0 0 0 .44-1.2 3.747 3.747 0 0 0-.323-2.422 3.968 3.968 0 0 0-.308-.543c-.117-.176-.25-.338-.367-.5-.029-.044-.073-.088-.1-.132a.893.893 0 0 0 .352-.22 1.4 1.4 0 0 0 .22-.294 3.029 3.029 0 0 1 .411.455 4.685 4.685 0 0 1 .455.646 4.241 4.241 0 0 1 .4.822 4.013 4.013 0 0 1 .25 1.439 4.318 4.318 0 0 1-.176 1.233 5.534 5.534 0 0 1-.382.969 7.943 7.943 0 0 1-.661 1.057c-.147.191-.294.367-.44.543a3.877 3.877 0 0 1-.426.426.076.076 0 0 0-.029.059 73.87 73.87 0 0 0-1.218 1.028.127.127 0 0 0-.088.044 5.755 5.755 0 0 1-.734.484 12.518 12.518 0 0 1-1.248.646 12.125 12.125 0 0 1-1.277.5 19.207 19.207 0 0 1-2 .558c-.529.117-1.057.22-1.585.294-.558.088-1.116.161-1.674.206-.22.015-.44.044-.661.059a.062.062 0 0 1-.077.022z" class="cls-3" data-name="Tracé 1252" transform="translate(-807.396 -280.21)"/>
            <path id="Tracé_1253" d="M555.17 486.736a2.485 2.485 0 0 1-.059.323 2.617 2.617 0 0 1-.382.851.385.385 0 0 0-.073.132c-.029.015-.044.044-.073.059a2.631 2.631 0 0 1-1.409.9 2.231 2.231 0 0 1-.984.044 2.584 2.584 0 0 1-1.967-1.38 2.366 2.366 0 0 1-.279-.9.089.089 0 0 0-.015-.059c0-.015-.029-.015-.029-.015v-.514c.015 0 .029 0 .029-.015a.054.054 0 0 0 .015-.044 2.6 2.6 0 0 1 1.468-2.055 2.445 2.445 0 0 1 1.16-.264 2.557 2.557 0 0 1 1.952.9 2.528 2.528 0 0 1 .617 1.292 4.193 4.193 0 0 1 .044.426c0 .113-.015.216-.015.319zm-.778-.264a1.646 1.646 0 0 0-.25-.94 1.843 1.843 0 0 0-.719-.7 1.737 1.737 0 0 0-.851-.206 1.686 1.686 0 0 0-.7.147 2.041 2.041 0 0 0-.6.4 1.75 1.75 0 0 0-.411.617 1.963 1.963 0 0 0-.132.661 1.722 1.722 0 0 0 .264.969 1.855 1.855 0 0 0 .661.646 2.161 2.161 0 0 0 .91.25 2.094 2.094 0 0 0 .925-.264 1.782 1.782 0 0 0 .661-.661 1.6 1.6 0 0 0 .242-.919z" class="cls-3" data-name="Tracé 1253" transform="translate(-549.9 -443.342)"/>
            <path id="Tracé_1254" d="M916.6 284.815a1.4 1.4 0 0 1-.22.294 1.1 1.1 0 0 1-.352.22.505.505 0 0 1-.352-.059 3.1 3.1 0 0 1-.455-.308c-.147-.117-.279-.235-.426-.352a1.1 1.1 0 0 1-.22-.235.514.514 0 0 1-.088-.206.477.477 0 0 1 .088-.44 2.158 2.158 0 0 1 .455-.44.486.486 0 0 1 .558 0 1.785 1.785 0 0 1 .25.22c.191.235.4.44.573.69a2.064 2.064 0 0 1 .147.235.494.494 0 0 1 .042.381z" class="cls-3" data-name="Tracé 1254" transform="translate(-860.947 -272.19)"/>
            <path id="Tracé_1255" d="M559.162 491.335a1.57 1.57 0 0 1-.25.925 1.9 1.9 0 0 1-.661.661 2.04 2.04 0 0 1-.925.264 2.161 2.161 0 0 1-.91-.25 1.745 1.745 0 0 1-.661-.646 1.722 1.722 0 0 1-.264-.969 1.768 1.768 0 0 1 .132-.661 1.749 1.749 0 0 1 .411-.617 1.788 1.788 0 0 1 .6-.4 1.686 1.686 0 0 1 .7-.147 1.915 1.915 0 0 1 .852.206 1.868 1.868 0 0 1 .969 1.629zm-1.82-1.541a1.549 1.549 0 1 0 1.541 1.541 1.541 1.541 0 0 0-1.541-1.541z" class="cls-3" data-name="Tracé 1255" transform="translate(-554.67 -448.205)"/>
            <path id="Tracé_1256" d="M559.051 491.5a1.556 1.556 0 1 1-1.556 1.541 1.543 1.543 0 0 1 1.556-1.541z" class="cls-3" data-name="Tracé 1256" transform="translate(-556.379 -449.907)"/>
        </g>
        <g id="Groupe_100" data-name="Groupe 100" transform="translate(101.292 .002)">
            <g id="Groupe_99" data-name="Groupe 99">
                <path id="Tracé_1257" d="M755.062 34.4C740.734 6.71 719.242-2.421 690 5.83c4.286-6.533 23.532-7.663 36.23-2.936 15.179 5.651 30.285 21.183 28.832 31.506z" class="cls-1" data-name="Tracé 1257" transform="translate(-690 -.002)"/>
                <path id="Tracé_1258" d="M712.9 81.767c15.15-10.32 46.11-1.409 52.231 21.741-1.512-1.057-2.554-1.424-3.039-2.158-12.346-19.055-24.031-24-45.7-19.333a17.689 17.689 0 0 1-3.492-.25z" class="cls-1" data-name="Tracé 1258" transform="translate(-709.538 -66.133)"/>
                <path id="Tracé_1259" d="M749.8 163.7c7.311-4.066 14.665-3.993 21.888-.573 6.445 3.053 11.553 7.5 12.816 15.458-8.324-12.814-19.466-18.334-34.704-14.885z" class="cls-1" data-name="Tracé 1259" transform="translate(-741.021 -137.027)"/>
            </g>
        </g>
    </g>
</svg>
